<svg version="1.2" xmlns="http://www.w3.org/2000/svg" viewBox="0 0 1920 791" width="1920" height="791">
	<title>bg-shapes-svg</title>
	<style>
		.s0 { fill: #7e57ff } 
	</style>
	<path id="Layer" fill-rule="evenodd" class="s0" d="m1041.9 649.4c1.5 29.6-22.8 54-52.5 52.5-25.4-1.3-46-21.9-47.3-47.3-1.5-29.6 22.8-54 52.5-52.5 25.4 1.3 46 21.9 47.3 47.3zm-14.7 4.9c1.4-21.3-16.2-38.8-37.5-37.5-17.5 1.1-31.8 15.3-32.9 32.9-1.4 21.3 16.2 38.8 37.5 37.5 17.6-1.1 31.8-15.3 32.9-32.9z"/>
	<path id="Layer" fill-rule="evenodd" class="s0" d="m1678.5 242.8c1.5 29.6-22.8 54-52.5 52.5-25.4-1.3-46-21.9-47.3-47.3-1.5-29.6 22.8-54 52.5-52.5 25.4 1.3 46 22 47.3 47.3zm-14.7 5c1.4-21.3-16.2-38.8-37.5-37.5-17.5 1.1-31.8 15.3-32.9 32.9-1.4 21.3 16.2 38.8 37.5 37.5 17.5-1.1 31.8-15.4 32.9-32.9z"/>
	<path id="Layer" class="s0" d="m1242 624l188-204 468 371h-445z"/>
	<path id="Layer" class="s0" d="m1339 386c76.8 0 139 62.2 139 139 0 76.8-62.2 139-139 139-76.8 0-139-62.2-139-139 0-76.8 62.2-139 139-139z"/>
</svg>